<svg width="24" height="30" viewBox="0 0 24 30" fill="none" xmlns="http://www.w3.org/2000/svg">
<path d="M17.3335 21.6666H6.66682M17.3335 16.3333H6.66682M9.33349 11H6.66682M13.3332 3V11L21 11M14.6665 1.66663H3.99983C3.29258 1.66663 2.61431 1.94758 2.11421 2.44767C1.61411 2.94777 1.33316 3.62605 1.33316 4.33329V25.6666C1.33316 26.3739 1.61411 27.0521 2.11421 27.5522C2.61431 28.0523 3.29258 28.3333 3.99983 28.3333H19.9998C20.7071 28.3333 21.3853 28.0523 21.8854 27.5522C22.3855 27.0521 22.6665 26.3739 22.6665 25.6666V9.66663L14.6665 1.66663Z" stroke="#252B34" stroke-width="1.5" stroke-linecap="round" stroke-linejoin="round"/>
</svg>
