<svg width="19" height="14" viewBox="0 0 19 14" fill="none" xmlns="http://www.w3.org/2000/svg">
  <path d="M18.1665 5.54167H18.6665C18.6665 5.47806 18.6544 5.41504 18.6307 5.35598L18.1665 5.54167ZM13.1665 2.41667V1.91667C12.8904 1.91667 12.6665 2.14053 12.6665 2.41667H13.1665ZM16.4934 2.41667V1.91667V2.41667ZM17.0737 2.80955L17.5379 2.62386V2.62386L17.0737 2.80955ZM0.666504 6.91667C0.390362 6.91667 0.166504 7.14053 0.166504 7.41667C0.166504 7.69281 0.390362 7.91667 0.666504 7.91667V6.91667ZM13.1665 7.91667C13.4426 7.91667 13.6665 7.69281 13.6665 7.41667C13.6665 7.14053 13.4426 6.91667 13.1665 6.91667V7.91667ZM0.666504 10.5417H0.166504H0.666504ZM1.2915 1.16667V1.66667V1.16667ZM13.1665 1.16667H13.6665C13.6665 0.890529 13.4426 0.666672 13.1665 0.666672V1.16667ZM12.6665 9.54285C12.6665 9.81899 12.8904 10.0428 13.1665 10.0428C13.4426 10.0428 13.6665 9.81899 13.6665 9.54285H12.6665ZM18.1665 5.04167H13.1665V6.04167H18.1665V5.04167ZM13.6665 5.54167V2.41667H12.6665V5.54167H13.6665ZM13.1665 2.91667H16.4934V1.91667H13.1665V2.91667ZM16.4934 2.91667C16.5183 2.91667 16.5428 2.92416 16.5634 2.93816L17.1241 2.1101C16.9379 1.98404 16.7182 1.91667 16.4934 1.91667L16.4934 2.91667ZM16.5634 2.93816C16.5841 2.95217 16.6001 2.97205 16.6094 2.99525L17.5379 2.62386C17.4544 2.4151 17.3102 2.23615 17.1241 2.1101L16.5634 2.93816ZM16.6094 2.99525L17.7023 5.72737L18.6307 5.35598L17.5379 2.62386L16.6094 2.99525ZM0.666504 7.91667H13.1665V6.91667H0.666504V7.91667ZM15.479 11.1667C15.479 11.9261 14.8634 12.5417 14.104 12.5417V13.5417C15.4157 13.5417 16.479 12.4783 16.479 11.1667H15.479ZM14.104 12.5417C13.3446 12.5417 12.729 11.9261 12.729 11.1667H11.729C11.729 12.4783 12.7923 13.5417 14.104 13.5417V12.5417ZM12.729 11.1667C12.729 10.4073 13.3446 9.79167 14.104 9.79167V8.79167C12.7923 8.79167 11.729 9.85499 11.729 11.1667H12.729ZM14.104 9.79167C14.8634 9.79167 15.479 10.4073 15.479 11.1667H16.479C16.479 9.85499 15.4157 8.79167 14.104 8.79167V9.79167ZM6.104 11.1667C6.104 11.9261 5.4884 12.5417 4.729 12.5417V13.5417C6.04068 13.5417 7.104 12.4783 7.104 11.1667H6.104ZM4.729 12.5417C3.96961 12.5417 3.354 11.9261 3.354 11.1667H2.354C2.354 12.4783 3.41733 13.5417 4.729 13.5417V12.5417ZM3.354 11.1667C3.354 10.4073 3.96961 9.79167 4.729 9.79167V8.79167C3.41733 8.79167 2.354 9.855 2.354 11.1667H3.354ZM4.729 9.79167C5.4884 9.79167 6.104 10.4073 6.104 11.1667H7.104C7.104 9.85499 6.04068 8.79167 4.729 8.79167V9.79167ZM12.229 10.6667H6.604V11.6667H12.229V10.6667ZM2.854 10.6667H1.2915V11.6667H2.854V10.6667ZM1.2915 10.6667C1.25835 10.6667 1.22656 10.6535 1.20312 10.6301L0.496009 11.3372C0.706988 11.5481 0.993136 11.6667 1.2915 11.6667V10.6667ZM1.20312 10.6301C1.17967 10.6066 1.1665 10.5748 1.1665 10.5417H0.166504C0.166504 10.84 0.28503 11.1262 0.496009 11.3372L1.20312 10.6301ZM1.1665 10.5417V1.79167H0.166504V10.5417H1.1665ZM1.1665 1.79167C1.1665 1.75852 1.17967 1.72673 1.20312 1.70328L0.496009 0.996177C0.28503 1.20716 0.166504 1.4933 0.166504 1.79167H1.1665ZM1.20312 1.70328C1.22656 1.67984 1.25835 1.66667 1.2915 1.66667V0.666672C0.993135 0.666672 0.706987 0.785199 0.496009 0.996177L1.20312 1.70328ZM1.2915 1.66667H13.1665V0.666672H1.2915V1.66667ZM12.6665 1.16667V9.54285H13.6665V1.16667H12.6665ZM13.6665 9.54285V5.54167H12.6665V9.54285H13.6665ZM17.6665 5.54167V10.5417H18.6665V5.54167H17.6665ZM17.6665 10.5417C17.6665 10.5748 17.6533 10.6066 17.6299 10.6301L18.337 11.3372C18.548 11.1262 18.6665 10.84 18.6665 10.5417H17.6665ZM17.6299 10.6301C17.6065 10.6535 17.5747 10.6667 17.5415 10.6667V11.6667C17.8399 11.6667 18.126 11.5481 18.337 11.3372L17.6299 10.6301ZM17.5415 10.6667H15.979V11.6667H17.5415V10.6667Z" fill="#959EA9"/>
</svg>
