<svg width="16" height="16" viewBox="0 0 16 16" fill="none" xmlns="http://www.w3.org/2000/svg">
<path d="M13.648 3.49997C13.2894 3.49997 12.9456 3.64241 12.692 3.89596L6.63733 9.95063L6 12.5L8.54934 11.8626L14.604 5.80796C14.8576 5.55441 15 5.21053 15 4.85196C15 4.49339 14.8576 4.14951 14.604 3.89596C14.3505 3.64241 14.0066 3.49997 13.648 3.49997Z" fill="#228BE6"/>
<path d="M4.32308 11L1 11M4.32308 7.99999L1 7.99997M4.32308 4.99995H2.5L1 4.99993M12.9427 1.72385C12.6927 1.4738 12.3536 1.33334 11.9999 1.33334H3.99994C3.64632 1.33334 3.30718 1.47382 3.05713 1.72387C2.80708 1.97392 2.6666 2.31305 2.6666 2.66668V13.3333C2.6666 13.687 2.80708 14.0261 3.05713 14.2762C3.30718 14.5262 3.64632 14.6667 3.99994 14.6667H11.9999C12.3536 14.6667 12.6927 14.5262 12.9427 14.2762C13.1928 14.0261 13.3333 13.687 13.3333 13.3333V9.73184M12.692 3.89596C12.9456 3.64241 13.2894 3.49997 13.648 3.49997C14.0066 3.49997 14.3505 3.64241 14.604 3.89596C14.8576 4.14951 15 4.49339 15 4.85196C15 5.21053 14.8576 5.55441 14.604 5.80796L8.54934 11.8626L6 12.5L6.63733 9.95063L12.692 3.89596Z" stroke="#228BE6" stroke-width="1.5" stroke-linecap="round" stroke-linejoin="round"/>
</svg>
