<svg width="17" height="16" viewBox="0 0 17 16" fill="none" xmlns="http://www.w3.org/2000/svg">
<path d="M15.519 9.12163V6.87448L14.1424 6.47015C14.0102 5.98417 13.8196 5.52541 13.5746 5.10164L14.2629 3.84588L12.6724 2.25576L11.4163 2.9439C10.9885 2.69897 10.5296 2.50847 10.0474 2.37628L9.64293 1H7.39515L6.99071 2.37628C6.5046 2.50847 6.04571 2.69897 5.62182 2.9439L4.36182 2.25576L2.77515 3.84199L3.46349 5.09775C3.21849 5.52541 3.02793 5.98417 2.89571 6.46626L1.51904 6.87448V9.12163L2.89571 9.52597C3.02793 10.0119 3.21849 10.4707 3.46349 10.8984L2.77515 12.1541L4.36571 13.7442L5.62182 13.0561C6.0496 13.301 6.50849 13.4915 6.99071 13.6237L7.39515 15H9.64293L10.0474 13.6237C10.5335 13.4915 10.9924 13.301 11.4163 13.0561L12.6724 13.7442L14.2629 12.1541L13.5746 10.8984C13.8196 10.4707 14.0102 10.0119 14.1424 9.52597L15.519 9.12163ZM8.51904 10.7195C7.01793 10.7195 5.79682 9.50264 5.79682 7.99806C5.79682 6.49736 7.01404 5.27659 8.51904 5.27659C10.024 5.27659 11.2413 6.49347 11.2413 7.99806C11.2413 9.49875 10.0202 10.7195 8.51904 10.7195Z" stroke="#228BE6" stroke-width="1.5" stroke-miterlimit="10" stroke-linecap="round" stroke-linejoin="round"/>
</svg>
