<svg width="16" height="16" viewBox="0 0 16 16" fill="none" xmlns="http://www.w3.org/2000/svg">
<path d="M2 3.99998H14M12.6667 5.72094V13.3333C12.6667 13.6869 12.5262 14.0261 12.2761 14.2761C12.0261 14.5262 11.687 14.6667 11.3333 14.6667H4.66667C4.31304 14.6667 3.97391 14.5262 3.72386 14.2761C3.47381 14.0261 3.33333 13.6869 3.33333 13.3333V5.72094M6.66666 7.33332V11.3333M9.33332 7.33332V11.3333" stroke="#E03131" stroke-width="1.5" stroke-linecap="round" stroke-linejoin="round"/>
<path d="M10.6667 2.33333C10.6667 1.97971 10.5262 1.64057 10.2762 1.39052C10.0261 1.14048 9.68699 1 9.33337 1H6.66671C6.31309 1 5.97395 1.14048 5.7239 1.39052C5.47385 1.64057 5.33337 1.97971 5.33337 2.33333" stroke="#E03131" stroke-width="1.5" stroke-linecap="round" stroke-linejoin="round"/>
</svg>
