<svg width="16" height="16" viewBox="0 0 16 16" fill="#E1E3E8" xmlns="http://www.w3.org/2000/svg">
  <path d="M15 6L15.592 6.46046C15.6944 6.32881 15.75 6.16678 15.75 6H15ZM1 6.00004H0.25C0.25 6.16682 0.305592 6.32885 0.407987 6.4605L1 6.00004ZM8 15L7.40799 15.4605C7.55008 15.6431 7.76856 15.75 8 15.75C8.23144 15.75 8.44992 15.6431 8.59201 15.4605L8 15ZM15.75 6C15.75 4.73926 15.1202 3.50976 14.0179 2.45748L12.9821 3.54252C13.8798 4.39933 14.25 5.26074 14.25 6H15.75ZM14.0179 2.45748C12.902 1.39234 11.2233 0.25 7.9999 0.25V1.75C10.7767 1.75 12.098 2.69857 12.9821 3.54252L14.0179 2.45748ZM7.9999 0.25C4.76979 0.25 2.98135 1.5037 1.98214 2.45748L3.01786 3.54252C3.79681 2.79897 5.2298 1.75 7.9999 1.75V0.25ZM1.98214 2.45748C1.00078 3.39424 0.25 4.72875 0.25 6.00004H1.75C1.75 5.27125 2.22106 4.30309 3.01786 3.54252L1.98214 2.45748ZM1 6.75004L15 6.75L15 5.25L0.999998 5.25004L1 6.75004ZM4.28849 6.23721L7.28849 15.2372L8.71151 14.7628L5.71151 5.76287L4.28849 6.23721ZM9.77736 5.79931L7.27736 14.7993L8.72264 15.2007L11.2226 6.20078L9.77736 5.79931ZM0.407987 6.4605L7.40799 15.4605L8.59201 14.5395L1.59201 5.53959L0.407987 6.4605ZM8.59201 15.4605L15.592 6.46046L14.408 5.53954L7.40799 14.5395L8.59201 15.4605Z" fill="#C7CDD3"/>
</svg>
