<svg width="16" height="16" viewBox="0 0 16 16" fill="none" xmlns="http://www.w3.org/2000/svg">
<path d="M15 9.12163V6.87448L13.6233 6.47015C13.4911 5.98417 13.3006 5.52541 13.0556 5.10164L13.7439 3.84588L12.1533 2.25576L10.8972 2.9439C10.4694 2.69897 10.0106 2.50847 9.52833 2.37628L9.12389 1H6.87611L6.47167 2.37628C5.98556 2.50847 5.52667 2.69897 5.10278 2.9439L3.84278 2.25576L2.25611 3.84199L2.94444 5.09775C2.69944 5.52541 2.50889 5.98417 2.37667 6.46626L1 6.87448V9.12163L2.37667 9.52597C2.50889 10.0119 2.69944 10.4707 2.94444 10.8984L2.25611 12.1541L3.84667 13.7442L5.10278 13.0561C5.53056 13.301 5.98944 13.4915 6.47167 13.6237L6.87611 15H9.12389L9.52833 13.6237C10.0144 13.4915 10.4733 13.301 10.8972 13.0561L12.1533 13.7442L13.7439 12.1541L13.0556 10.8984C13.3006 10.4707 13.4911 10.0119 13.6233 9.52597L15 9.12163ZM8 10.7195C6.49889 10.7195 5.27778 9.50264 5.27778 7.99806C5.27778 6.49736 6.495 5.27659 8 5.27659C9.505 5.27659 10.7222 6.49347 10.7222 7.99806C10.7222 9.49875 9.50111 10.7195 8 10.7195Z" stroke="#228BE6" stroke-width="1.5" stroke-miterlimit="10" stroke-linecap="round" stroke-linejoin="round"/>
</svg>
