<svg width="14" height="16" viewBox="0 0 14 16" fill="none" xmlns="http://www.w3.org/2000/svg">
<path d="M1 3.99998H13M11.6667 5.72093V13.3333C11.6667 13.6869 11.5262 14.0261 11.2761 14.2761C11.0261 14.5262 10.687 14.6666 10.3333 14.6666H3.66667C3.31304 14.6666 2.97391 14.5262 2.72386 14.2761C2.47381 14.0261 2.33333 13.6869 2.33333 13.3333V5.72093M9.66674 2.33333C9.66674 1.97971 9.52626 1.64057 9.27621 1.39052C9.02616 1.14048 8.68703 1 8.3334 1H5.66674C5.31312 1 4.97398 1.14048 4.72393 1.39052C4.47388 1.64057 4.3334 1.97971 4.3334 2.33333" stroke="#252B34" stroke-width="1.5" stroke-linecap="round" stroke-linejoin="round"/>
</svg>
